<svg width="23" height="38" viewBox="0 0 23 38" fill="none" xmlns="http://www.w3.org/2000/svg">
<path d="M21.5426 17.5938L4.77104 0.818299C4.38313 0.429988 3.86531 0.216064 3.31318 0.216064C2.76104 0.216064 2.24322 0.429988 1.85532 0.818299L0.620209 2.05342C-0.183483 2.85824 -0.183483 4.1663 0.620209 4.96989L14.7037 19.057L0.604583 33.1597C0.216678 33.548 0.00250244 34.0656 0.00250244 34.6176C0.00250244 35.1702 0.216678 35.6878 0.604583 36.0765L1.83969 37.3113C2.2279 37.6996 2.74541 37.9135 3.29755 37.9135C3.84969 37.9135 4.36751 37.6996 4.75541 37.3113L21.5426 20.5204C21.9314 20.1309 22.145 19.6108 22.1437 19.0579C22.145 18.5029 21.9314 17.9831 21.5426 17.5938Z" fill="white"/>
</svg>
