<svg width="12" height="19" viewBox="0 0 12 19" fill="none" xmlns="http://www.w3.org/2000/svg">
<path d="M10.7842 8.75854L2.38924 0.305081C2.19366 0.10813 1.93287 0 1.65675 0C1.38062 0 1.11984 0.10813 0.928085 0.305081L0.31064 0.926829C-0.0920415 1.33232 -0.0920415 1.99268 0.31064 2.39431L7.36332 9.49614L0.30297 16.6057C0.107382 16.7988 0 17.0614 0 17.3394C0 17.6175 0.107382 17.8801 0.30297 18.0732L0.920415 18.6949C1.116 18.8919 1.37295 19 1.64908 19C1.9252 19 2.18599 18.8919 2.37774 18.6949L10.7842 10.2337C10.9798 10.0368 11.0872 9.77419 11.0833 9.49614C11.0872 9.21809 10.9798 8.95549 10.7842 8.75854Z" fill="#F5AE1C"/>
</svg>
