<svg width="33" height="25" viewBox="0 0 33 25" fill="none" xmlns="http://www.w3.org/2000/svg">
<path d="M30.0996 0H2.90039C1.30195 0 0 1.28192 0 2.85577V21.8942C0 23.4617 1.29551 24.75 2.90039 24.75H30.0996C31.6916 24.75 33 23.4744 33 21.8942V2.85577C33 1.28827 31.7045 0 30.0996 0ZM29.7 1.90385L16.5645 14.8373L3.31289 1.90385H29.7ZM1.93359 21.5008V3.24288L11.2471 12.3306L1.93359 21.5008ZM3.3 22.8462L12.6199 13.6696L15.8877 16.8554C16.268 17.2235 16.8738 17.2235 17.2541 16.8554L20.4381 13.7204L29.7 22.8462H3.3ZM31.0664 21.5008L21.798 12.375L31.0664 3.24923V21.5008Z" fill="#F5AE1C"/>
</svg>
