<svg width="21" height="21" viewBox="0 0 21 21" fill="none" xmlns="http://www.w3.org/2000/svg">
<path d="M4 10.191V10.8064C4 11.2059 4.33035 11.5515 4.72148 11.5515H13.4427L10.6757 14.367C10.5409 14.5046 10.4696 14.6774 10.4696 14.8717C10.4696 15.0661 10.5436 15.2497 10.6757 15.3846L11.1012 15.8192C11.236 15.9569 11.4131 16.0298 11.6033 16.0298C11.7936 16.0298 11.9733 15.9542 12.1055 15.8192L16.7938 11.0305C16.9286 10.8928 17.0026 10.7093 16.9999 10.5149C16.9999 10.3205 16.9259 10.137 16.7938 9.99931L12.1055 5.21055C11.9707 5.07288 11.7936 5 11.6033 5C11.4131 5 11.236 5.07558 11.1012 5.21325L10.6757 5.64786C10.5409 5.78553 10.4696 5.96909 10.4696 6.16345C10.4696 6.3578 10.5436 6.54406 10.6757 6.67903L13.411 9.47832H4.71091L4.73206 9.47292C4.33828 9.47292 4 9.79145 4 10.191Z" fill="white"/>
<circle cx="10.5" cy="10.5" r="9.5" stroke="white" stroke-width="2"/>
</svg>
