<svg width="40" height="40" viewBox="0 0 40 40" fill="none" xmlns="http://www.w3.org/2000/svg">
<path d="M39.9004 11.496C39.8086 9.41421 39.4717 7.99059 38.9895 6.75067C38.4919 5.43422 37.7263 4.26318 36.7311 3.28349C35.7513 2.28849 34.5647 1.51546 33.2709 1.03327C32.0231 0.551075 30.6069 0.214307 28.5246 0.122461C26.4271 0.0229615 25.7611 0 20.4483 0C15.1355 0 14.4695 0.0229615 12.3872 0.114807C10.305 0.206653 8.88107 0.543422 7.64091 1.02561C6.3242 1.52311 5.15293 2.28849 4.17305 3.28349C3.17786 4.26318 2.40467 5.44952 1.92238 6.74302C1.4401 7.99059 1.10327 9.40655 1.0114 11.4884C0.911882 13.5855 0.888916 14.2514 0.888916 19.5555C0.888916 24.8596 0.911882 25.5332 1.00375 27.615C1.09561 29.6968 1.43244 31.1205 1.91473 32.3604C2.41233 33.6768 3.18551 34.8479 4.17305 35.8276C5.15293 36.8226 6.33951 37.5956 7.63326 38.0778C8.88107 38.56 10.2973 38.8967 12.3796 38.9886C14.4618 39.0804 15.1278 39.1034 20.4406 39.1034C25.7534 39.1034 26.4194 39.0804 28.5017 38.9886C30.5839 38.8967 32.0078 38.56 33.248 38.0778C35.8737 37.0598 37.956 34.9856 38.9742 32.3527C39.4564 31.1051 39.7933 29.6892 39.8851 27.6073C39.977 25.5179 40 24.8596 40 19.5479C40 14.2361 39.9923 13.5855 39.9004 11.496ZM36.379 27.4696C36.2948 29.383 35.9733 30.4086 35.7053 31.0975C35.047 32.8043 33.692 34.1514 31.9925 34.8096C31.3035 35.0775 30.2624 35.3989 28.3639 35.4831C26.2969 35.575 25.6845 35.5979 20.4636 35.5979C15.2426 35.5979 14.6149 35.575 12.5633 35.4831C10.6495 35.3989 9.62364 35.0775 8.93466 34.8096C8.08492 34.4958 7.31173 33.9983 6.69165 33.3477C6.04095 32.7125 5.54335 31.9471 5.22949 31.1051C4.96155 30.4163 4.64002 29.3754 4.55582 27.4772C4.46395 25.4107 4.44099 24.7984 4.44099 19.5785C4.44099 14.3586 4.46395 13.731 4.55582 11.6797C4.64002 9.76628 4.96155 8.74067 5.22949 8.05182C5.5357 7.1946 6.03329 6.42921 6.69165 5.8016C7.32704 5.15102 8.09258 4.65353 8.93466 4.33972C9.62364 4.07184 10.6648 3.75037 12.5633 3.66618C14.6302 3.57434 15.2426 3.55138 20.4636 3.55138C25.6922 3.55138 26.3122 3.57434 28.3639 3.66618C30.2777 3.75037 31.3035 4.07184 31.9925 4.33972C32.8422 4.65353 33.6154 5.15102 34.2355 5.8016C34.8862 6.43687 35.3838 7.20225 35.6977 8.05182C35.9656 8.74067 36.2871 9.78159 36.3713 11.6797C36.4632 13.7463 36.4862 14.3586 36.4862 19.5785C36.4862 24.7984 36.4709 25.403 36.379 27.4696Z" fill="#F5AE1C"/>
<path d="M20.4483 9.51392C14.8982 9.51392 10.3969 14.0144 10.3969 19.5634C10.3969 25.1124 14.8982 29.6129 20.4483 29.6129C25.9984 29.6129 30.4998 25.1124 30.4998 19.5634C30.4998 14.0144 25.9984 9.51392 20.4483 9.51392ZM20.4483 26.0768C16.8503 26.0768 13.926 23.1607 13.926 19.5557C13.926 15.9508 16.8427 13.0347 20.4483 13.0347C24.0463 13.0347 26.9707 15.9508 26.9707 19.5557C26.9707 23.1607 24.054 26.0768 20.4483 26.0768Z" fill="#F5AE1C"/>
<path d="M33.248 9.11604C33.248 10.4095 32.1992 11.4581 30.9055 11.4581C29.6117 11.4581 28.5629 10.4095 28.5629 9.11604C28.5629 7.82254 29.6117 6.77397 30.9055 6.77397C32.1915 6.76631 33.248 7.82254 33.248 9.11604Z" fill="#F5AE1C"/>
</svg>
