<svg width="113" height="104" viewBox="0 0 113 104" fill="none" xmlns="http://www.w3.org/2000/svg">
<path d="M31.4358 18.8305C34.8067 18.8305 37.7857 20.9578 38.8048 24.1881C39.04 24.976 39.9023 25.37 40.6862 25.1336C41.4702 24.8972 41.8621 24.0306 41.627 23.2427C40.1375 18.8305 35.9826 15.8365 31.3574 15.8365C25.3995 15.8365 20.5391 20.7214 20.5391 26.7094C20.5391 32.6974 25.3995 37.5823 31.3574 37.5823C35.9826 37.5823 40.1375 34.5883 41.627 30.1761C41.8621 29.3882 41.4702 28.5215 40.6862 28.2852C39.9023 28.0488 39.04 28.4427 38.8048 29.2306C37.7073 32.461 34.7283 34.5883 31.4358 34.5883C27.1241 34.5883 23.5964 31.0428 23.5964 26.7094C23.5964 22.376 27.1241 18.8305 31.4358 18.8305Z" fill="white"/>
<path d="M55.2675 26.6307C55.2675 18.8305 51.5046 11.8971 45.7819 7.56369C45.7035 7.4849 45.7035 7.4849 45.6251 7.4849C37.237 1.26055 25.7131 1.18177 17.325 7.4849C17.2466 7.4849 17.2466 7.56369 17.1682 7.56369C11.4455 11.9759 7.68257 18.9093 7.68257 26.6307V30.4913H5.25237C3.52771 30.4913 2.19502 31.9095 2.19502 33.5641V42.8612C2.19502 44.5946 3.60611 45.934 5.25237 45.934H7.68257C7.68257 61.0615 7.68257 76.1891 7.68257 91.3166C7.60418 92.4984 8.5449 93.2863 9.40723 93.2075C10.1128 93.1287 10.8183 92.3408 10.7399 91.3166C10.7399 80.4437 10.7399 69.492 10.7399 58.6191H14.1109V95.4924C14.1109 96.6742 13.0917 97.6985 11.9158 97.6985H10.7399V91.3954C10.7399 90.5287 10.0344 89.8984 9.25045 89.8984C8.38812 89.8984 7.76097 90.6075 7.76097 91.3954V97.7773H1.48948C0.627149 97.7773 0 98.4864 0 99.2743C0 100.062 0.705543 100.771 1.48948 100.771H12.4646C12.6998 100.771 12.8566 100.692 13.0133 100.692C15.3651 100.22 17.1682 98.0925 17.1682 95.5712V58.6979H18.1873C18.7361 58.6979 19.2848 58.3827 19.52 57.91C21.8718 53.419 26.497 50.5826 31.5142 50.5826C44.606 50.5826 55.2675 39.8672 55.2675 26.6307ZM19.7552 9.45463C26.8106 4.5697 36.2178 4.5697 43.2733 9.45463V12.0547C43.2733 12.7638 42.8029 13.1577 42.5677 13.2365C42.3326 13.3153 41.7838 13.5517 41.235 13.1577C38.4129 11.1092 35.0419 10.0062 31.5926 10.0062C28.1433 10.0062 24.7724 11.1092 21.9502 13.1577C21.4015 13.5517 20.7743 13.3941 20.6175 13.2365C20.3823 13.1577 19.912 12.7638 19.912 12.0547L19.7552 9.45463ZM5.25237 43.0188C5.17398 43.0188 5.17398 42.94 5.25237 43.0188L5.17398 33.6429C5.17398 33.6429 5.17398 33.5641 5.25237 33.5641H7.68257V42.94H5.25237V43.0188ZM31.4358 47.5098C25.5563 47.5098 20.2256 50.5826 17.2466 55.6251H10.7399V26.6307C10.7399 20.9578 13.0133 15.7578 16.6978 11.9759V12.0547C16.6978 13.7092 17.6386 15.2062 19.0496 15.9153C19.6768 16.2305 20.3823 16.3881 21.0095 16.3881C21.8718 16.3881 22.8125 16.0729 23.5181 15.6002C25.7915 13.9456 28.5353 13.0789 31.4358 13.0789C34.258 13.0789 37.0018 13.9456 39.3536 15.6002C40.6863 16.5457 42.4109 16.7032 43.9004 15.9153C45.3899 15.1274 46.2522 13.7092 46.2522 12.0547V11.9759C49.9367 15.7578 52.2101 20.8791 52.2101 26.6307C52.2101 38.1339 42.8813 47.5098 31.4358 47.5098Z" fill="white"/>
<path d="M85.7628 14.7336C85.7628 14.7336 85.7628 14.6548 85.7628 14.7336C85.7628 14.6548 85.7628 14.6548 85.7628 14.7336V7.9577C85.7628 7.9577 85.7628 7.9577 85.7628 7.87891C85.7628 7.80012 85.7628 7.87891 85.7628 7.80012V1.49699C85.7628 0.630313 85.0572 0 84.2733 0H66.478C65.6156 0 64.9885 0.709102 64.9885 1.49699C64.9885 10.6365 64.9885 19.7761 64.9885 28.9156C64.9885 28.0489 65.694 27.4186 66.478 27.4186C67.2619 27.4186 67.9674 28.1277 67.9674 28.9156C67.9674 20.2488 67.9674 11.6608 67.9674 2.99399H82.7838V6.30313H79.4129C78.5506 6.30313 77.9234 7.01223 77.9234 7.80012C77.9234 8.58801 78.629 9.29712 79.4129 9.29712H82.7838V13.079H79.4129C78.5506 13.079 77.9234 13.7881 77.9234 14.576C77.9234 15.4427 78.629 16.073 79.4129 16.073H82.7838V19.8549H75.4148C74.5525 19.8549 73.9253 20.564 73.9253 21.3519C73.9253 22.2185 74.6309 22.8488 75.4148 22.8488H82.7838V26.7883H79.4129C78.5506 26.7883 77.9234 27.4974 77.9234 28.2853C77.9234 29.152 78.629 29.7823 79.4129 29.7823H82.7838V33.5642H79.4129C78.5506 33.5642 77.9234 34.2733 77.9234 35.0612C77.9234 35.9278 78.629 36.5582 79.4129 36.5582H82.7838V40.34H75.4148C74.5525 40.34 73.9253 41.0491 73.9253 41.837C73.9253 42.7037 74.6309 43.334 75.4148 43.334H82.7838V47.1159H79.4129C78.5506 47.1159 77.9234 47.825 77.9234 48.6129C77.9234 49.4796 78.629 50.1099 79.4129 50.1099H82.7838V53.8918H79.4129C78.5506 53.8918 77.9234 54.6009 77.9234 55.3888C77.9234 56.2554 78.629 56.8857 79.4129 56.8857H82.7838V60.6676H75.4148C74.5525 60.6676 73.9253 61.3767 73.9253 62.1646C73.9253 62.9525 74.6309 63.6616 75.4148 63.6616H82.7838V67.4435H79.4129C78.5506 67.4435 77.9234 68.1526 77.9234 68.9405C77.9234 69.8072 78.629 70.4375 79.4129 70.4375H82.7838V74.2194H79.4129C78.5506 74.2194 77.9234 74.9285 77.9234 75.7163C77.9234 76.583 78.629 77.2133 79.4129 77.2133H82.7838V90.9226L79.0209 83.2013C78.1586 81.4679 76.4339 80.3649 74.4741 80.3649H68.0458V28.9156C68.0458 28.0489 67.3403 27.4186 66.5563 27.4186C65.694 27.4186 65.0669 28.1277 65.0669 28.9156V80.6013H37.3155C34.9637 80.6013 33.0823 82.4922 33.0823 84.8559V99.4319C33.0823 101.796 34.9637 103.686 37.3155 103.686H80.6672C82.4702 103.686 84.0381 102.82 84.9788 101.244C85.3708 100.692 85.606 100.062 85.6844 99.3531C85.7628 99.1955 85.7628 99.0379 85.7628 98.8803V98.5652V98.4864V76.0315C85.7628 76.0315 85.7628 76.0315 85.7628 75.9527C85.7628 75.9527 85.7628 75.9527 85.7628 75.8739V69.1768C85.7628 69.1768 85.7628 69.1768 85.7628 69.0981C85.7628 69.0981 85.7628 69.0981 85.7628 69.0193V62.3222C85.7628 62.3222 85.7628 62.3222 85.7628 62.2434C85.7628 62.2434 85.7628 62.2434 85.7628 62.1646V55.4675C85.7628 55.4675 85.7628 55.4675 85.7628 55.3888C85.7628 55.3888 85.7628 55.3887 85.7628 55.31V48.6129C85.7628 48.6129 85.7628 48.6129 85.7628 48.5341C85.7628 48.5341 85.7628 48.5341 85.7628 48.4553V41.7582C85.7628 41.7582 85.7628 41.7582 85.7628 41.6794C85.7628 41.6007 85.7628 41.6794 85.7628 41.6007V34.9036C85.7628 34.9036 85.7628 34.9036 85.7628 34.8248C85.7628 34.8248 85.7628 34.8248 85.7628 34.746V28.3641C85.7628 28.3641 85.7628 28.3641 85.7628 28.2853C85.7628 28.2853 85.7628 28.2853 85.7628 28.2065V21.5094C85.7628 21.5094 85.7628 21.5094 85.7628 21.4306C85.7628 21.4306 85.7628 21.4306 85.7628 21.3519C85.7628 17.2548 85.7628 14.7336 85.7628 14.7336ZM80.6672 100.535H37.3155C36.6884 100.535 36.1396 99.9834 36.1396 99.3531V84.7771C36.1396 84.1468 36.6884 83.5953 37.3155 83.5953H66.3996C66.3996 83.5953 66.3996 83.5953 66.478 83.5953H74.3957C75.1796 83.5953 75.8852 84.068 76.1988 84.7771L82.4702 97.5409C82.627 97.7773 82.7054 98.0925 82.7054 98.4076V98.5652C82.7054 98.5652 82.7054 98.5652 82.7054 98.644C82.7054 98.7228 82.7054 98.7228 82.7054 98.8016C82.627 99.0379 82.5486 99.3531 82.3918 99.5894C82.0783 100.22 81.4511 100.535 80.6672 100.535Z" fill="white"/>
<path d="M112.965 21.7457L105.361 3.62421C104.969 2.83632 104.342 2.36359 103.558 2.36359C102.774 2.36359 102.068 2.83632 101.755 3.54542L93.9939 21.6669C93.9155 21.9033 93.8372 22.1397 93.8372 22.4548V91.553C93.8372 96.9106 98.1488 101.165 103.401 101.165C108.732 101.165 112.965 96.8318 112.965 91.553V50.2674C112.965 49.1644 112.103 48.3765 111.084 48.3765C109.986 48.3765 109.202 49.2432 109.202 50.2674V84.3044H105.361V24.4246H109.202C109.202 33.0126 109.202 41.6794 109.202 50.2674C109.202 49.2432 110.065 48.3765 111.084 48.3765C112.103 48.3765 112.965 49.2432 112.965 50.2674C113.044 40.7339 112.965 31.2004 112.965 21.7457ZM98.6976 20.5639L100.344 16.7032H106.615L108.262 20.5639H98.6976ZM103.48 9.21825L104.969 12.7638H101.99L103.48 9.21825ZM109.281 91.553C109.281 94.7833 106.694 97.3046 103.558 97.3046C100.344 97.3046 97.8352 94.7045 97.8352 91.553V88.165H109.359V91.553H109.281ZM101.598 84.3044H97.7568V24.4246H101.598V84.3044Z" fill="white"/>
</svg>
