<svg width="103" height="104" viewBox="0 0 103 104" fill="none" xmlns="http://www.w3.org/2000/svg">
<path d="M97.8497 68.6803H81.2184L95.614 60.3661C96.8006 59.687 97.6682 58.5639 98.0249 57.2434C98.3825 55.9229 98.1994 54.5152 97.5165 53.3308L85.4965 32.5131C84.812 31.3294 83.6844 30.4664 82.3634 30.1151C81.0424 29.7567 79.6326 29.9453 78.4523 30.6378L64.0536 38.9543L72.3637 24.5597C73.0537 23.376 73.2431 21.966 72.891 20.6416C72.539 19.3172 71.673 18.1877 70.4864 17.5039L49.6761 5.48147C48.4919 4.80081 47.086 4.61924 45.7682 4.97608C44.4503 5.33292 43.3282 6.19829 42.6484 7.38277L34.3336 21.7891V5.15136C34.3305 2.30766 32.0264 0.00314395 29.1833 0H5.15031C2.30719 0.00314395 0.00314331 2.30766 0 5.15136V97.8695C0.00314331 100.713 2.30719 103.018 5.15031 103.021H97.8497C100.693 103.018 102.997 100.713 103 97.8695V73.8316C102.997 70.9879 100.693 68.6834 97.8497 68.6803ZM5.15031 68.6803C4.56409 68.6866 3.98336 68.7935 3.43328 68.997V51.5104H17.1766L7.26576 68.6803H5.15031ZM74.3519 68.6803H50.8768L43.0123 55.0725L60.8498 44.7706L74.5766 68.5514L74.3519 68.6803ZM58.1049 42.3898L37.7818 54.1285L24.1681 46.2663L34.464 28.4299L58.2385 42.1587L58.1049 42.3898ZM30.9003 27.7359L20.3514 46.0117C20.3459 46.0203 20.3372 46.0242 20.3317 46.0337L20.3223 46.0612L19.1593 48.0764H3.43328V27.4726H30.9003V27.7359ZM22.4519 49.2405L34.3485 56.1116L12.5866 68.6803H11.2303L22.4519 49.2405ZM38.6179 57.6112L38.6399 57.5987L40.0395 56.7899L46.9116 68.6803H19.4532L38.6179 57.6112ZM30.9003 72.1143H51.5V99.5868H30.9003V72.1143ZM54.9333 72.1143H75.533V99.5868H54.9333V72.1143ZM80.1756 33.608C80.567 33.3769 81.0361 33.3133 81.4754 33.4311C81.9186 33.5506 82.2966 33.8399 82.5276 34.2368L94.5406 55.0434C94.7692 55.4388 94.8305 55.9088 94.7103 56.3497C94.5901 56.7899 94.2993 57.1648 93.9017 57.3888L77.5494 66.8324L63.8233 43.0524L80.1756 33.608ZM45.6252 9.09465C45.8499 8.70008 46.2232 8.41084 46.6624 8.29137C47.1009 8.1719 47.5693 8.23164 47.9638 8.458L68.7631 20.4734C69.163 20.7037 69.4554 21.0833 69.5756 21.529C69.6935 21.9715 69.6283 22.4423 69.3941 22.8361L59.9563 39.1846L36.1811 25.4557L45.6252 9.09465ZM5.15031 3.43397H29.1833C30.131 3.43555 30.8987 4.20346 30.9003 5.15136V24.0378H3.43328V5.15136C3.43485 4.20346 4.20261 3.43555 5.15031 3.43397ZM3.43328 97.8695V73.8316C3.43485 72.8837 4.20261 72.1158 5.15031 72.1143H27.467V99.5868H5.15031C4.20261 99.5853 3.43485 98.8174 3.43328 97.8695ZM99.5667 97.8695C99.5651 98.8174 98.7974 99.5853 97.8497 99.5868H78.967V72.1143H97.8497C98.7974 72.1158 99.5651 72.8837 99.5667 73.8316V97.8695Z" fill="white"/>
</svg>
