<svg width="61" height="64" viewBox="0 0 61 64" fill="none" xmlns="http://www.w3.org/2000/svg">
<path d="M58.0589 32.6098C57.8032 32.0864 57.8032 31.4862 58.0589 30.963L60.43 26.1125C61.7501 23.4118 60.7041 20.1929 58.0487 18.784L53.2796 16.2535C52.7651 15.9806 52.4123 15.4949 52.3116 14.9214L51.3789 9.60357C50.8595 6.64275 48.1207 4.65315 45.1449 5.07419L39.7993 5.83035C39.2223 5.9118 38.6517 5.7263 38.2332 5.3214L34.3529 1.56768C32.1924 -0.522497 28.8076 -0.522621 26.6472 1.56768L22.7668 5.32177C22.3481 5.7268 21.7776 5.91193 21.2007 5.83072L15.8551 5.07456C12.8783 4.65328 10.1405 6.64313 9.62109 9.60394L8.68837 14.9215C8.58767 15.4951 8.23493 15.9808 7.72051 16.2538L2.95138 18.7842C0.296008 20.193 -0.749949 23.4122 0.570161 26.1129L2.94107 30.9632C3.19685 31.4866 3.19685 32.0868 2.94107 32.61L0.570037 37.4604C-0.750074 40.161 0.295883 43.38 2.95125 44.7889L7.72039 47.3193C8.23493 47.5923 8.58767 48.078 8.68837 48.6515L9.62109 53.9693C10.0939 56.6647 12.4051 58.5549 15.0613 58.5547C15.3229 58.5547 15.5884 58.5363 15.8552 58.4986L21.2009 57.7424C21.7774 57.6606 22.3483 57.8465 22.7669 58.2514L26.6472 62.0051C27.7277 63.0503 29.1136 63.5728 30.5 63.5727C31.886 63.5725 33.2728 63.05 34.3528 62.0051L38.2332 58.2514C38.6519 57.8465 39.2225 57.6615 39.7993 57.7424L45.1449 58.4986C48.1221 58.9197 50.8595 56.93 51.3789 53.9692L52.3117 48.6516C52.4124 48.078 52.7652 47.5924 53.2796 47.3193L58.0487 44.7889C60.7041 43.3801 61.7501 40.1609 60.43 37.4602L58.0589 32.6098ZM56.3302 41.5498L51.5611 44.0803C50.0405 44.8872 48.9977 46.3223 48.7003 48.0179L47.7676 53.3356C47.5919 54.3373 46.6658 55.0102 45.6584 54.868L40.3128 54.1119C38.608 53.8704 36.9211 54.419 35.6838 55.6159L31.8035 59.3695C31.0726 60.0764 29.9275 60.0764 29.1964 59.3695L25.3162 55.6157C24.2704 54.6042 22.9034 54.056 21.4763 54.056C21.2148 54.056 20.9512 54.0744 20.6872 54.1117L15.3416 54.8679C14.3351 55.0102 13.4082 54.3372 13.2324 53.3355L12.2996 48.0176C12.0021 46.3221 10.9593 44.8869 9.43869 44.0802L4.66956 41.5497C3.77111 41.073 3.41724 39.984 3.86386 39.0703L6.23489 34.2198C6.9908 32.6732 6.9908 30.8994 6.23489 29.3528L3.86386 24.5024C3.41724 23.5886 3.77111 22.4996 4.66956 22.0229L9.43869 19.4925C10.9592 18.6855 12.0021 17.2505 12.2994 15.5549L13.2322 10.2372C13.408 9.23542 14.334 8.56245 15.3413 8.70474L20.687 9.4609C22.3911 9.70215 24.0786 9.15372 25.3159 7.9569L29.1963 4.20318C29.9271 3.49619 31.0723 3.49619 31.8033 4.20318L35.6836 7.9569C36.9209 9.15384 38.6082 9.70215 40.3125 9.4609L45.6582 8.70474C46.6648 8.56233 47.5917 9.23542 47.7674 10.2372L48.7001 15.555C48.9976 17.2506 50.0403 18.6858 51.5609 19.4925L56.3301 22.0229C57.2285 22.4996 57.5824 23.5886 57.1358 24.5024L54.7647 29.3527C54.0088 30.8992 54.0088 32.6732 54.7647 34.2197L57.1358 39.07C57.5825 39.984 57.2286 41.0732 56.3302 41.5498Z" fill="black"/>
<path d="M43.8952 18.391C43.1794 17.675 42.0184 17.675 41.3025 18.391L17.1043 42.5893C16.3884 43.3052 16.3884 44.466 17.1043 45.1819C17.4623 45.5399 17.9315 45.7189 18.4006 45.7189C18.8697 45.7189 19.339 45.54 19.6969 45.1819L43.8951 20.9837C44.6112 20.2677 44.6112 19.107 43.8952 18.391Z" fill="black"/>
<path d="M23.1668 15.2869C19.4603 15.2869 16.4447 18.3024 16.4447 22.009C16.4447 25.7155 19.4603 28.7311 23.1668 28.7311C26.8734 28.7311 29.8889 25.7155 29.8889 22.009C29.8889 18.3024 26.8734 15.2869 23.1668 15.2869ZM23.1668 25.0644C21.482 25.0644 20.1114 23.6938 20.1114 22.0089C20.1114 20.3241 21.482 18.9534 23.1668 18.9534C24.8516 18.9534 26.2224 20.3241 26.2224 22.0089C26.2222 23.6938 24.8516 25.0644 23.1668 25.0644Z" fill="black"/>
<path d="M37.833 34.842C34.1264 34.842 31.1108 37.8576 31.1108 41.5642C31.1108 45.2707 34.1264 48.2863 37.833 48.2863C41.5395 48.2863 44.5551 45.2707 44.5551 41.5642C44.5551 37.8576 41.5395 34.842 37.833 34.842ZM37.833 44.6196C36.1482 44.6196 34.7774 43.2489 34.7774 41.5642C34.7774 39.8794 36.148 38.5087 37.833 38.5087C39.5177 38.5087 40.8884 39.8794 40.8884 41.5642C40.8884 43.2489 39.5177 44.6196 37.833 44.6196Z" fill="black"/>
</svg>
