<svg width="127" height="117" viewBox="0 0 127 117" fill="none" xmlns="http://www.w3.org/2000/svg">
<path d="M35.3305 21.1635C39.1191 21.1635 42.4671 23.5544 43.6125 27.1849C43.8768 28.0704 44.846 28.5132 45.727 28.2476C46.6081 27.9819 47.0486 27.0078 46.7843 26.1223C45.1103 21.1635 40.4406 17.7986 35.2424 17.7986C28.5463 17.7986 23.0837 23.2887 23.0837 30.0186C23.0837 36.7484 28.5463 42.2385 35.2424 42.2385C40.4406 42.2385 45.1103 38.8736 46.7843 33.9148C47.0486 33.0293 46.6081 32.0552 45.727 31.7896C44.846 31.5239 43.8768 31.9667 43.6125 32.8522C42.379 36.4827 39.0309 38.8736 35.3305 38.8736C30.4847 38.8736 26.5199 34.8888 26.5199 30.0186C26.5199 25.1483 30.4847 21.1635 35.3305 21.1635Z" fill="black"/>
<path d="M62.1148 29.93C62.1148 21.1635 57.8857 13.371 51.454 8.50076C51.3659 8.41221 51.3659 8.41221 51.2777 8.41221C41.8504 1.41671 28.8988 1.32816 19.4714 8.41221C19.3833 8.41221 19.3833 8.50076 19.2952 8.50076C12.8635 13.4596 8.6344 21.2521 8.6344 29.93V34.269H5.90311C3.96477 34.269 2.46697 35.8629 2.46697 37.7225V48.1715C2.46697 50.1196 4.05288 51.6249 5.90311 51.6249H8.6344C8.6344 68.6267 8.6344 85.6284 8.6344 102.63C8.54629 103.958 9.60356 104.844 10.5727 104.755C11.3657 104.667 12.1586 103.781 12.0705 102.63C12.0705 90.4101 12.0705 78.1016 12.0705 65.8816H15.8591V107.323C15.8591 108.652 14.7137 109.803 13.3921 109.803H12.0705V102.719C12.0705 101.745 11.2776 101.036 10.3965 101.036C9.42735 101.036 8.7225 101.833 8.7225 102.719V109.891H1.67402C0.704849 109.891 0 110.688 0 111.574C0 112.459 0.792955 113.256 1.67402 113.256H14.0089C14.2732 113.256 14.4494 113.168 14.6256 113.168C17.2688 112.636 19.2952 110.245 19.2952 107.412V65.9701H20.4406C21.0574 65.9701 21.6741 65.6159 21.9384 65.0846C24.5816 60.0373 29.7799 56.8494 35.4187 56.8494C50.1324 56.8494 62.1148 44.8065 62.1148 29.93ZM22.2027 10.626C30.1323 5.13584 40.705 5.13584 48.6346 10.626V13.5481C48.6346 14.3451 48.1059 14.7879 47.8416 14.8764C47.5773 14.965 46.9606 15.2306 46.3438 14.7879C43.172 12.4855 39.3834 11.2458 35.5068 11.2458C31.6301 11.2458 27.8415 12.4855 24.6697 14.7879C24.053 15.2306 23.3481 15.0535 23.1719 14.8764C22.9076 14.7879 22.3789 14.3451 22.3789 13.5481L22.2027 10.626ZM5.90311 48.3486C5.815 48.3486 5.815 48.26 5.90311 48.3486L5.815 37.811C5.815 37.811 5.815 37.7225 5.90311 37.7225H8.6344V48.26H5.90311V48.3486ZM35.3305 53.3959C28.7226 53.3959 22.7314 56.8494 19.3833 62.5167H12.0705V29.93C12.0705 23.5544 14.6256 17.71 18.7666 13.4596V13.5481C18.7666 15.4077 19.8239 17.0902 21.4098 17.8871C22.1146 18.2413 22.9076 18.4184 23.6124 18.4184C24.5816 18.4184 25.6389 18.0642 26.4318 17.5329C28.9869 15.6734 32.0706 14.6993 35.3305 14.6993C38.5024 14.6993 41.5861 15.6734 44.2293 17.5329C45.7271 18.5955 47.6654 18.7726 49.3394 17.8871C51.0134 17.0016 51.9826 15.4077 51.9826 13.5481V13.4596C56.1236 17.71 58.6787 23.4658 58.6787 29.93C58.6787 42.8584 48.194 53.3959 35.3305 53.3959Z" fill="black"/>
<path d="M96.3881 16.559C96.3881 16.559 96.3881 16.4704 96.3881 16.559C96.3881 16.4704 96.3881 16.4704 96.3881 16.559V8.94361C96.3881 8.94361 96.3881 8.94361 96.3881 8.85506C96.3881 8.76651 96.3881 8.85506 96.3881 8.76651V1.68246C96.3881 0.708405 95.5951 0 94.7141 0H74.714C73.7448 0 73.04 0.796955 73.04 1.68246C73.04 11.9543 73.04 22.2262 73.04 32.4981C73.04 31.524 73.8329 30.8156 74.714 30.8156C75.595 30.8156 76.388 31.6126 76.388 32.4981C76.388 22.7575 76.388 13.1055 76.388 3.36492H93.04V7.08405H89.2515C88.2823 7.08405 87.5775 7.881 87.5775 8.76651C87.5775 9.65202 88.3704 10.449 89.2515 10.449H93.04V14.6994H89.2515C88.2823 14.6994 87.5775 15.4964 87.5775 16.3819C87.5775 17.3559 88.3704 18.0643 89.2515 18.0643H93.04V22.3148H84.7581C83.7889 22.3148 83.0841 23.1117 83.0841 23.9972C83.0841 24.9713 83.877 25.6797 84.7581 25.6797H93.04V30.1072H89.2515C88.2823 30.1072 87.5775 30.9042 87.5775 31.7897C87.5775 32.7637 88.3704 33.4721 89.2515 33.4721H93.04V37.7226H89.2515C88.2823 37.7226 87.5775 38.5195 87.5775 39.405C87.5775 40.3791 88.3704 41.0875 89.2515 41.0875H93.04V45.3379H84.7581C83.7889 45.3379 83.0841 46.1349 83.0841 47.0204C83.0841 47.9944 83.877 48.7028 84.7581 48.7028H93.04V52.9533H89.2515C88.2823 52.9533 87.5775 53.7502 87.5775 54.6357C87.5775 55.6098 88.3704 56.3182 89.2515 56.3182H93.04V60.5686H89.2515C88.2823 60.5686 87.5775 61.3656 87.5775 62.2511C87.5775 63.2251 88.3704 63.9335 89.2515 63.9335H93.04V68.184H84.7581C83.7889 68.184 83.0841 68.9809 83.0841 69.8664C83.0841 70.7519 83.877 71.5489 84.7581 71.5489H93.04V75.7993H89.2515C88.2823 75.7993 87.5775 76.5963 87.5775 77.4818C87.5775 78.4558 88.3704 79.1642 89.2515 79.1642H93.04V83.4147H89.2515C88.2823 83.4147 87.5775 84.2116 87.5775 85.0971C87.5775 86.0712 88.3704 86.7796 89.2515 86.7796H93.04V102.187L88.811 93.5094C87.8418 91.5613 85.9034 90.3216 83.7008 90.3216H76.4761V32.4981C76.4761 31.524 75.6831 30.8156 74.8021 30.8156C73.8329 30.8156 73.1281 31.6126 73.1281 32.4981V90.5873H41.9385C39.2953 90.5873 37.1808 92.7125 37.1808 95.369V111.751C37.1808 114.407 39.2953 116.533 41.9385 116.533H90.6612C92.6876 116.533 94.4497 115.559 95.507 113.788C95.9475 113.168 96.2119 112.459 96.3 111.662C96.3881 111.485 96.3881 111.308 96.3881 111.131V110.777V110.688V85.4513C96.3881 85.4513 96.3881 85.4513 96.3881 85.3628C96.3881 85.3628 96.3881 85.3628 96.3881 85.2742V77.7474C96.3881 77.7474 96.3881 77.7474 96.3881 77.6589C96.3881 77.6589 96.3881 77.6589 96.3881 77.5703V70.0435C96.3881 70.0435 96.3881 70.0435 96.3881 69.955C96.3881 69.955 96.3881 69.955 96.3881 69.8664V62.3396C96.3881 62.3396 96.3881 62.3396 96.3881 62.2511C96.3881 62.2511 96.3881 62.2511 96.3881 62.1625V54.6357C96.3881 54.6357 96.3881 54.6357 96.3881 54.5472C96.3881 54.5472 96.3881 54.5472 96.3881 54.4586V46.9318C96.3881 46.9318 96.3881 46.9318 96.3881 46.8433C96.3881 46.7547 96.3881 46.8433 96.3881 46.7547V39.2279C96.3881 39.2279 96.3881 39.2279 96.3881 39.1394C96.3881 39.1394 96.3881 39.1394 96.3881 39.0508V31.8782C96.3881 31.8782 96.3881 31.8782 96.3881 31.7897C96.3881 31.7897 96.3881 31.7897 96.3881 31.7011V24.1743C96.3881 24.1743 96.3881 24.1743 96.3881 24.0858C96.3881 24.0858 96.3881 24.0858 96.3881 23.9972C96.3881 19.3926 96.3881 16.559 96.3881 16.559ZM90.6612 112.991H41.9385C41.2337 112.991 40.6169 112.371 40.6169 111.662V95.2804C40.6169 94.572 41.2337 93.9522 41.9385 93.9522H74.6259C74.6259 93.9522 74.6259 93.9522 74.714 93.9522H83.6127C84.4938 93.9522 85.2867 94.4835 85.6391 95.2804L92.6876 109.626C92.8638 109.891 92.9519 110.246 92.9519 110.6V110.777C92.9519 110.777 92.9519 110.777 92.9519 110.865C92.9519 110.954 92.9519 110.954 92.9519 111.042C92.8638 111.308 92.7757 111.662 92.5995 111.928C92.2471 112.636 91.5422 112.991 90.6612 112.991Z" fill="black"/>
<path d="M126.961 24.44L118.415 4.07331C117.974 3.1878 117.269 2.65649 116.388 2.65649C115.507 2.65649 114.714 3.1878 114.362 3.98475L105.639 24.3514C105.551 24.6171 105.463 24.8827 105.463 25.2369V102.896C105.463 108.917 110.309 113.699 116.212 113.699C122.203 113.699 126.961 108.829 126.961 102.896V56.4953C126.961 55.2556 125.992 54.3701 124.846 54.3701C123.613 54.3701 122.732 55.3442 122.732 56.4953V94.7492H118.415V27.4507H122.732C122.732 37.1027 122.732 46.8433 122.732 56.4953C122.732 55.3442 123.701 54.3701 124.846 54.3701C125.992 54.3701 126.961 55.3442 126.961 56.4953C127.049 45.7807 126.961 35.0661 126.961 24.44ZM110.926 23.1117L112.776 18.7727H119.824L121.675 23.1117H110.926ZM116.3 10.3604L117.974 14.3452H114.626L116.3 10.3604ZM122.82 102.896C122.82 106.526 119.912 109.36 116.388 109.36C112.776 109.36 109.956 106.438 109.956 102.896V99.0882H122.908V102.896H122.82ZM114.186 94.7492H109.868V27.4507H114.186V94.7492Z" fill="black"/>
</svg>
