<svg width="23" height="39" viewBox="0 0 23 39" fill="none" xmlns="http://www.w3.org/2000/svg">
<path d="M14.2068 38.1099H7.71679C6.63248 38.1099 5.75396 37.286 5.75396 36.2692V22.5388H1.96284C0.878527 22.5388 0 21.7149 0 20.6981V14.82C0 13.8032 0.878527 12.9794 1.96284 12.9794H5.74604V10.0329C5.74604 7.11611 6.72746 4.62979 8.57158 2.84854C10.4394 1.05244 13.0354 0.109863 16.0905 0.109863L21.0372 0.117285C22.1215 0.117285 23 0.948535 23 1.95791V7.42041C23 8.43721 22.1215 9.26103 21.0372 9.26103H17.7051C16.692 9.26103 16.4308 9.454 16.3754 9.51338C16.2805 9.60986 16.1776 9.88447 16.1776 10.6415V12.972H20.7918C21.1401 12.972 21.4725 13.0536 21.7653 13.2021C22.3906 13.5286 22.7784 14.1446 22.7784 14.8126V20.6907C22.7784 21.7075 21.8999 22.5313 20.8156 22.5313H16.1855V36.2544C16.1696 37.286 15.2911 38.1099 14.2068 38.1099ZM8.12836 35.8833H13.7953V21.5442C13.7953 20.8688 14.3809 20.3122 15.1091 20.3122H20.3882V15.1985H15.1012C14.3809 15.1985 13.7873 14.6493 13.7873 13.9665V10.6489C13.7873 9.78057 13.8823 8.78604 14.5788 8.04385C15.4257 7.1458 16.7632 7.04189 17.6893 7.04189H20.6098V2.34385L16.0905 2.33643C11.1834 2.33643 8.12836 5.28291 8.12836 10.0255V13.9665C8.12836 14.6419 7.54267 15.1985 6.81452 15.1985H2.3744V20.3122H6.81452C7.53476 20.3122 8.12836 20.8614 8.12836 21.5442V35.8833Z" fill="#F5AE1C"/>
</svg>
