<svg width="38" height="38" viewBox="0 0 38 38" fill="none" xmlns="http://www.w3.org/2000/svg">
<path fill-rule="evenodd" clip-rule="evenodd" d="M32.4639 5.52111C28.8926 1.96121 24.1389 0 19.0806 0C8.65346 0 0.161245 8.4451 0.161245 18.8277C0.161245 22.1439 1.03316 25.3829 2.68741 28.2415L0 38L10.033 35.3791C12.798 36.8768 15.9095 37.6672 19.0746 37.6731H19.0806C29.5078 37.6731 38 29.228 38 18.8455C38.006 13.8117 36.0352 9.08101 32.4639 5.52111ZM19.0806 34.4936H19.0746C16.2499 34.4936 13.4848 33.7388 11.0721 32.3125L10.4988 31.9737L4.54471 33.5249L6.13327 27.7482L5.75703 27.1539C4.18042 24.6637 3.35031 21.7873 3.35628 18.8277C3.35628 10.1983 10.4092 3.17954 19.0866 3.17954C23.2849 3.17954 27.2384 4.80794 30.2065 7.76759C33.1746 10.7272 34.8109 14.6556 34.8109 18.8395C34.805 27.4689 27.746 34.4936 19.0806 34.4936ZM27.7042 22.7679C27.2324 22.5302 24.9093 21.3951 24.4734 21.2346C24.0374 21.0801 23.7269 20.9969 23.4103 21.4723C23.0938 21.9418 22.192 23.0056 21.9114 23.3147C21.6366 23.6297 21.3619 23.6653 20.8842 23.4335C20.4124 23.1958 18.8895 22.7025 17.08 21.0979C15.6766 19.8499 14.727 18.3106 14.4523 17.8411C14.1776 17.3716 14.4523 17.1398 14.6613 16.8783C15.1749 16.2484 15.6885 15.5827 15.8438 15.2677C15.9991 14.9528 15.9214 14.6794 15.802 14.4417C15.6825 14.2039 14.739 11.8921 14.3448 10.9471C13.9626 10.0319 13.5684 10.1567 13.2818 10.1389C13.0071 10.127 12.6905 10.1211 12.374 10.1211C12.0575 10.1211 11.5439 10.2399 11.1139 10.7094C10.678 11.1789 9.45969 12.32 9.45969 14.6318C9.45969 16.9437 11.1557 19.1842 11.3886 19.4992C11.6275 19.8142 14.721 24.5627 19.4628 26.6012C20.5915 27.0885 21.4694 27.3738 22.1562 27.5937C23.2909 27.9503 24.3181 27.9027 25.1362 27.7779C26.044 27.6412 27.9312 26.6368 28.3253 25.5433C28.7195 24.4439 28.7195 23.5048 28.6 23.3087C28.4925 23.1245 28.176 23.0056 27.7042 22.7679Z" fill="#F5AE1C"/>
</svg>
