<svg width="52" height="52" viewBox="0 0 52 52" fill="none" xmlns="http://www.w3.org/2000/svg">
<path d="M9.90466 25.2352V26.7592C9.90466 27.7484 10.7227 28.604 11.6912 28.604H33.2866L26.435 35.5757C26.1012 35.9166 25.9246 36.3444 25.9246 36.8257C25.9246 37.3069 26.1078 37.7615 26.435 38.0957L27.4886 39.1718C27.8223 39.5127 28.2608 39.6932 28.732 39.6932C29.2031 39.6932 29.6481 39.506 29.9753 39.1718L41.5845 27.314C41.9183 26.9731 42.1015 26.5185 42.095 26.0373C42.095 25.556 41.9117 25.1015 41.5845 24.7606L29.9753 12.9027C29.6416 12.5618 29.2031 12.3813 28.732 12.3813C28.2608 12.3813 27.8223 12.5685 27.4886 12.9094L26.435 13.9856C26.1012 14.3265 25.9246 14.781 25.9246 15.2623C25.9246 15.7435 26.1078 16.2047 26.435 16.539L33.2081 23.4705H11.665L11.7174 23.4572C10.7423 23.4572 9.90466 24.2459 9.90466 25.2352Z" fill="white"/>
<circle cx="26" cy="26" r="25" stroke="white" stroke-width="2"/>
</svg>
