<svg width="23" height="38" viewBox="0 0 23 38" fill="none" xmlns="http://www.w3.org/2000/svg">
<path d="M0.601143 17.3778L17.3727 0.602235C17.7606 0.213924 18.2784 0 18.8306 0C19.3827 0 19.9005 0.213924 20.2884 0.602235L21.5235 1.83735C22.3272 2.64217 22.3272 3.95023 21.5235 4.75382L7.44005 18.8409L21.5392 32.9436C21.9271 33.3319 22.1412 33.8496 22.1412 34.4015C22.1412 34.9541 21.9271 35.4718 21.5392 35.8604L20.304 37.0952C19.9158 37.4835 19.3983 37.6974 18.8462 37.6974C18.294 37.6974 17.7762 37.4835 17.3883 37.0952L0.601143 20.3043C0.212318 19.9148 -0.00124359 19.3947 -1.90735e-05 18.8418C-0.00124359 18.2868 0.212318 17.767 0.601143 17.3778Z" fill="white"/>
</svg>
