<svg width="100" height="101" viewBox="0 0 100 101" fill="none" xmlns="http://www.w3.org/2000/svg">
<path d="M66.6668 55.0113C61.1517 55.0113 56.6667 59.4971 56.6667 65.0133C56.6667 70.5294 61.1517 75.0153 66.6668 75.0153C72.1818 75.0153 76.6668 70.5294 76.6668 65.0133C76.6668 59.4971 72.1818 55.0113 66.6668 55.0113ZM66.6668 71.6812C62.99 71.6812 60.0002 68.6906 60.0002 65.0133C60.0002 61.3358 62.9902 58.3454 66.6668 58.3454C70.3435 58.3454 73.3334 61.336 73.3334 65.0133C73.3336 68.6908 70.3435 71.6812 66.6668 71.6812Z" fill="white"/>
<path d="M70.0001 71.6813V78.5695L67.5901 76.9625C67.0302 76.5874 66.3018 76.5874 65.7417 76.9625L63.3333 78.5695V71.6813H60.0001V81.6834C60.0001 82.2986 60.3384 82.8637 60.8818 83.1536C61.4218 83.4437 62.0817 83.4103 62.5917 83.0702L66.6667 80.353L70.7417 83.0702C71.02 83.2552 71.3434 83.3503 71.6667 83.3503C71.9366 83.3503 72.2067 83.2853 72.4534 83.1536C72.995 82.8635 73.3335 82.2984 73.3335 81.6834V71.6813H70.0001Z" fill="white"/>
<path d="M60.0001 16.67H38.3335V20.0041H60.0001V16.67Z" fill="white"/>
<path d="M76.6669 26.6721H23.3334V30.0062H76.6669V26.6721Z" fill="white"/>
<path d="M60.0001 36.6741H23.3334V40.0082H60.0001V36.6741Z" fill="white"/>
<path d="M76.6668 36.6741H66.6667V40.0082H76.6668V36.6741Z" fill="white"/>
<path d="M76.6669 46.6762H23.3334V50.0103H76.6669V46.6762Z" fill="white"/>
<path d="M43.3334 56.6782H23.3334V60.0123H43.3334V56.6782Z" fill="white"/>
<path d="M31.6668 65.0134H23.3334V68.3474H31.6668V65.0134Z" fill="white"/>
<path d="M43.3335 65.0134H38.3335V68.3474H43.3335V65.0134Z" fill="white"/>
<path d="M91.6668 0C87.0719 0 83.3334 3.73905 83.3334 8.33511V11.6692C83.3334 12.5893 84.0783 13.3361 85 13.3361H98.3334C99.2551 13.3361 100 12.5893 100 11.6692V8.33511C100 3.73905 96.2619 0 91.6668 0ZM96.6668 10.0021H86.6668V8.33511C86.6668 5.5779 88.9101 3.33408 91.6668 3.33408C94.4234 3.33408 96.6668 5.5779 96.6668 8.33511V10.0021Z" fill="white"/>
<path d="M91.6668 0H21.6666C17.0717 0 13.3334 3.73905 13.3334 8.3351V88.3515H16.6668V8.3351C16.6668 5.5779 18.9101 3.33408 21.6668 3.33408H85.0036C83.9554 4.72773 83.3337 6.45972 83.3337 8.3351V91.6856C83.3337 94.4428 81.0904 96.6866 78.3337 96.6866H15V100.02H78.3335C82.9284 100.02 86.6669 96.2814 86.6669 91.6854V8.3351C86.6669 5.5779 88.9103 3.33408 91.6669 3.33408C92.5886 3.33408 93.3335 2.58725 93.3335 1.66714C93.3335 0.747028 92.5884 0 91.6668 0Z" fill="white"/>
<path d="M78.3335 96.6864C75.5768 96.6864 73.3335 94.4426 73.3335 91.6854V88.3513C73.3335 87.4294 72.5886 86.6843 71.6669 86.6843H1.6666C0.74668 86.6843 0 87.4294 0 88.3513V91.6854C0 96.2814 3.73829 100.02 8.33341 100.02H78.3335C79.2552 100.02 80.0001 99.2754 80.0001 98.3535C80.0001 97.4317 79.2552 96.6864 78.3335 96.6864ZM8.33341 96.6864C5.57676 96.6864 3.3334 94.4426 3.3334 91.6854V90.0184H70.0001V91.6854C70.0001 93.5607 70.6218 95.2927 71.67 96.6864H8.33341Z" fill="white"/>
</svg>
