<svg width="19" height="33" viewBox="0 0 19 33" fill="none" xmlns="http://www.w3.org/2000/svg">
<path d="M15.5707 0H2.68461C1.20136 0 0 1.19093 0 2.66129V30.3387C0 31.8091 1.20136 33 2.68461 33H15.5707C17.054 33 18.2553 31.8091 18.2553 30.3387V2.66129C18.2553 1.19093 17.054 0 15.5707 0ZM12.7653 1.06452L12.4431 2.66129H5.81217L5.49002 1.06452H12.7653ZM17.1815 30.3387C17.1815 31.2169 16.4566 31.9355 15.5707 31.9355H2.68461C1.79869 31.9355 1.07384 31.2169 1.07384 30.3387V2.66129C1.07384 1.78306 1.79869 1.06452 2.68461 1.06452H4.38933L4.839 3.3C4.88598 3.54617 5.10746 3.72581 5.3625 3.72581H12.8794C13.1344 3.72581 13.3559 3.54617 13.4029 3.3L13.8526 1.06452H15.5707C16.4566 1.06452 17.1815 1.78306 17.1815 2.66129V30.3387Z" fill="#F5AE1C"/>
</svg>
