<svg width="28" height="26" viewBox="0 0 28 26" fill="none" xmlns="http://www.w3.org/2000/svg">
<path fill-rule="evenodd" clip-rule="evenodd" d="M27.8987 19.3117C27.7247 19.0245 27.2722 18.8505 26.576 18.5111C25.8886 18.163 22.5035 16.5007 21.8682 16.2657C21.2417 16.0307 20.7805 15.9176 20.3193 16.6138C19.8581 17.3014 18.5353 18.8592 18.1351 19.3117C17.7348 19.773 17.3345 19.8252 16.647 19.4858C15.9595 19.1464 13.7405 18.4153 11.1038 16.0656C9.05882 14.238 7.6752 11.9839 7.27491 11.2964C6.87461 10.6088 7.27491 10.2694 7.57948 9.8865C8.32785 8.96399 9.07623 7.98927 9.30248 7.52801C9.52874 7.06676 9.41561 6.66642 9.24157 6.31831C9.06753 5.97019 7.6926 2.58476 7.11827 1.201C6.56134 -0.139246 5.987 0.0435145 5.56931 0.0261087C5.16901 0 4.7078 0 4.2466 0C3.78539 0 3.04571 0.174058 2.41047 0.861587C1.78392 1.54912 0 3.22007 0 6.61421C0 10.0083 2.47138 13.2806 2.81076 13.7419C3.15884 14.2031 7.6665 21.1568 14.5759 24.1419C16.2206 24.8555 17.4998 25.2732 18.5005 25.5952C20.1539 26.1174 21.6507 26.0478 22.8429 25.865C24.1656 25.6649 26.9154 24.1941 27.4897 22.584C28.0728 20.974 28.0728 19.5989 27.8987 19.3117ZM27.8987 19.3117C27.7247 19.0245 27.2722 18.8505 26.576 18.5111C25.8886 18.163 22.5035 16.5007 21.8682 16.2657C21.2417 16.0307 20.7805 15.9176 20.3193 16.6138C19.8581 17.3014 18.5353 18.8592 18.1351 19.3117C17.7348 19.773 17.3345 19.8252 16.647 19.4858C15.9595 19.1464 13.7405 18.4153 11.1038 16.0656C9.05882 14.238 7.6752 11.9839 7.27491 11.2964C6.87461 10.6088 7.27491 10.2694 7.57948 9.8865C8.32785 8.96399 9.07623 7.98927 9.30248 7.52801C9.52874 7.06676 9.41561 6.66642 9.24157 6.31831C9.06753 5.97019 7.6926 2.58476 7.11827 1.201C6.56134 -0.139246 5.987 0.0435145 5.56931 0.0261087C5.16901 0 4.7078 0 4.2466 0C3.78539 0 3.04571 0.174058 2.41047 0.861587C1.78392 1.54912 0 3.22007 0 6.61421C0 10.0083 2.47138 13.2806 2.81076 13.7419C3.15884 14.2031 7.6665 21.1568 14.5759 24.1419C16.2206 24.8555 17.4998 25.2732 18.5005 25.5952C20.1539 26.1174 21.6507 26.0478 22.8429 25.865C24.1656 25.6649 26.9154 24.1941 27.4897 22.584C28.0728 20.974 28.0728 19.5989 27.8987 19.3117ZM27.8987 19.3117C27.7247 19.0245 27.2722 18.8505 26.576 18.5111C25.8886 18.163 22.5035 16.5007 21.8682 16.2657C21.2417 16.0307 20.7805 15.9176 20.3193 16.6138C19.8581 17.3014 18.5353 18.8592 18.1351 19.3117C17.7348 19.773 17.3345 19.8252 16.647 19.4858C15.9595 19.1464 13.7405 18.4153 11.1038 16.0656C9.05882 14.238 7.6752 11.9839 7.27491 11.2964C6.87461 10.6088 7.27491 10.2694 7.57948 9.8865C8.32785 8.96399 9.07623 7.98927 9.30248 7.52801C9.52874 7.06676 9.41561 6.66642 9.24157 6.31831C9.06753 5.97019 7.6926 2.58476 7.11827 1.201C6.56134 -0.139246 5.987 0.0435145 5.56931 0.0261087C5.16901 0 4.7078 0 4.2466 0C3.78539 0 3.04571 0.174058 2.41047 0.861587C1.78392 1.54912 0 3.22007 0 6.61421C0 10.0083 2.47138 13.2806 2.81076 13.7419C3.15884 14.2031 7.6665 21.1568 14.5759 24.1419C16.2206 24.8555 17.4998 25.2732 18.5005 25.5952C20.1539 26.1174 21.6507 26.0478 22.8429 25.865C24.1656 25.6649 26.9154 24.1941 27.4897 22.584C28.0728 20.974 28.0728 19.5989 27.8987 19.3117Z" fill="black"/>
</svg>
