<svg width="97" height="129" viewBox="0 0 97 129" fill="none" xmlns="http://www.w3.org/2000/svg">
<path d="M94.3454 126.965C94.3454 127.03 2 126.997 2 126.932C2 126.932 2.58242 126.932 3.71489 126.932C4.84737 126.932 6.56227 126.932 8.82722 126.9C8.82722 86.3155 8.82722 45.7638 8.82722 5.1797C8.92429 4.85477 9.24786 3.78249 10.2833 2.97016C11.3834 2.15782 12.5159 2.12533 12.8394 2.12533C41.7661 1.93037 62.9596 1.96286 65.2893 2.22281C65.7423 2.2878 67.0042 2.38528 67.8778 3.36008C68.6544 4.17241 68.7515 5.14721 68.7838 5.47214C68.7838 20.4191 68.7838 35.3985 68.7838 50.3454C68.7838 57.2665 68.7838 64.155 68.7838 71.0436C55.9059 71.1086 45.4871 81.5714 45.4871 94.5038C45.4871 107.436 55.9059 117.931 68.7515 117.964V126.867C80.7234 126.835 88.3919 126.867 93.1483 126.9C93.8925 126.965 94.3454 126.965 94.3454 126.965Z" stroke="black" stroke-width="4" stroke-miterlimit="10"/>
<path d="M18.34 57.8188C17.8223 58.2737 17.6605 58.7936 17.6282 58.9885C17.6282 65.2922 17.6605 71.5959 17.6605 77.8671C17.6605 77.9971 17.6282 78.7769 18.2106 79.3618C18.6636 79.8167 19.1813 79.9142 19.3754 79.9467C21.5433 79.9467 23.7112 79.9467 25.8791 79.9467C26.0732 79.9142 26.5586 79.7517 26.9792 79.3293C27.4645 78.8419 27.5616 78.2571 27.594 78.0621C27.594 71.6609 27.5616 65.2597 27.5616 58.891C27.5293 58.6961 27.4645 58.2737 27.141 57.8838C26.6233 57.2664 25.8791 57.2339 25.7497 57.2339C23.7112 57.2339 21.6404 57.2664 19.6019 57.2664C19.3754 57.3314 18.8254 57.3964 18.34 57.8188Z" stroke="black" stroke-width="4" stroke-miterlimit="10"/>
<path d="M23.2258 64.2851C27.3675 64.2851 31.5414 64.2526 35.6831 64.2526" stroke="black" stroke-width="4" stroke-miterlimit="10"/>
<path d="M33.2563 11.126C36.5567 11.126 39.8894 11.126 43.1898 11.126" stroke="black" stroke-width="4" stroke-miterlimit="10"/>
<path d="M92.2423 94.5362C92.2423 107.501 81.7912 117.996 68.8809 117.996H68.7839C55.9383 117.931 45.5195 107.469 45.5195 94.5362C45.5195 81.6039 55.9383 71.1085 68.8162 71.076H68.9133C81.7912 71.076 92.2423 81.5714 92.2423 94.5362Z" stroke="black" stroke-width="4" stroke-miterlimit="10"/>
<path d="M83.8297 83.6185C83.2149 83.0012 82.2442 83.0012 81.6618 83.6185L63.1862 102.172L56.1002 95.0562C55.4854 94.4388 54.5147 94.4388 53.9323 95.0562C53.3175 95.6735 53.3175 96.6483 53.9323 97.2332L62.1185 105.454C62.7332 106.071 63.7039 106.071 64.2864 105.454L83.862 85.7956C84.4445 85.2107 84.4445 84.2359 83.8297 83.6185Z" fill="black"/>
</svg>
