<svg width="130" height="124" viewBox="0 0 130 124" fill="none" xmlns="http://www.w3.org/2000/svg">
<path d="M61.5768 100.163L46.801 93.8938C42.8874 92.2273 38.3349 94.0525 36.6576 97.9409C36.2183 98.9329 34.9804 99.29 34.0619 98.6948C30.5476 96.2745 27.4727 93.4177 24.9169 90.0847C21.3227 85.4027 19.0065 80.205 17.489 75.2055C17.1696 74.1739 17.8884 73.1423 18.9666 73.0233C23 72.5868 25.8753 69.0158 25.436 65.0084L23.7588 50.0101C23.3195 46.0424 19.6854 43.1459 15.692 43.5823L8.26415 45.0107C5.4288 45.3282 2.03437 46.3598 2.03437 50.3276C1.87463 55.8031 1.75482 82.784 14.3741 98.0203C21.762 106.948 31.0668 112.225 43.2069 117.462L52.5116 121.391C56.4252 123.057 60.9777 121.232 62.655 117.343L65.69 110.281C67.3673 106.353 65.5303 101.829 61.5768 100.163Z" stroke="black" stroke-width="3" stroke-miterlimit="10" stroke-linejoin="round"/>
<path d="M128.307 37.3926C128.307 17.8314 107.222 2 81.2247 2C55.2273 2 34.1418 17.8314 34.1418 37.3926C34.1418 51.994 45.9225 64.5322 62.695 69.9284C63.7333 70.2458 64.1327 71.5552 63.4139 72.3884C59.7399 76.872 54.3088 80.4827 50.9543 82.5063C50.1556 82.9824 50.515 84.2124 51.4335 84.1727C58.2224 83.9743 73.3975 82.6253 82.862 74.3326C84.0201 73.301 85.4577 72.6265 87.0152 72.5075C110.297 70.3252 128.307 55.446 128.307 37.3926Z" stroke="black" stroke-width="3" stroke-miterlimit="10" stroke-linecap="round" stroke-linejoin="round"/>
<path d="M69.5637 18.5453H109.738" stroke="black" stroke-width="3" stroke-miterlimit="10" stroke-linecap="round" stroke-linejoin="round"/>
<path d="M69.5637 30.766H109.738" stroke="black" stroke-width="3" stroke-miterlimit="10" stroke-linecap="round" stroke-linejoin="round"/>
<path d="M69.5637 42.947H109.738" stroke="black" stroke-width="3" stroke-miterlimit="10" stroke-linecap="round" stroke-linejoin="round"/>
<path d="M69.5637 55.1282H109.738" stroke="black" stroke-width="3" stroke-miterlimit="10" stroke-linecap="round" stroke-linejoin="round"/>
<path d="M59.5003 21.9579C61.397 21.9579 62.9347 20.4302 62.9347 18.5456C62.9347 16.661 61.397 15.1333 59.5003 15.1333C57.6035 15.1333 56.0659 16.661 56.0659 18.5456C56.0659 20.4302 57.6035 21.9579 59.5003 21.9579Z" stroke="black" stroke-width="3" stroke-miterlimit="10" stroke-linecap="round" stroke-linejoin="round"/>
<path d="M59.5003 34.1782C61.397 34.1782 62.9347 32.6505 62.9347 30.7659C62.9347 28.8814 61.397 27.3536 59.5003 27.3536C57.6035 27.3536 56.0659 28.8814 56.0659 30.7659C56.0659 32.6505 57.6035 34.1782 59.5003 34.1782Z" stroke="black" stroke-width="3" stroke-miterlimit="10" stroke-linecap="round" stroke-linejoin="round"/>
<path d="M59.5003 46.3596C61.397 46.3596 62.9347 44.8319 62.9347 42.9473C62.9347 41.0628 61.397 39.535 59.5003 39.535C57.6035 39.535 56.0659 41.0628 56.0659 42.9473C56.0659 44.8319 57.6035 46.3596 59.5003 46.3596Z" stroke="black" stroke-width="3" stroke-miterlimit="10" stroke-linecap="round" stroke-linejoin="round"/>
<path d="M59.5003 58.5403C61.397 58.5403 62.9347 57.0125 62.9347 55.128C62.9347 53.2434 61.397 51.7157 59.5003 51.7157C57.6035 51.7157 56.0659 53.2434 56.0659 55.128C56.0659 57.0125 57.6035 58.5403 59.5003 58.5403Z" stroke="black" stroke-width="3" stroke-miterlimit="10" stroke-linecap="round" stroke-linejoin="round"/>
</svg>
