<svg width="152" height="96" viewBox="0 0 152 96" fill="none" xmlns="http://www.w3.org/2000/svg">
<path d="M141.372 40.694L137.423 24.9855C138.492 24.7484 139.294 23.7999 139.294 22.6737V20.1247C139.294 14.6119 134.811 10.1365 129.289 10.1365H111.358V4.92004C111.358 2.22291 109.161 0 106.43 0H15.0813C12.3797 0 10.1531 2.19327 10.1531 4.92004V48.0148C10.1531 49.3189 11.2219 50.3859 12.5281 50.3859C13.8344 50.3859 14.9031 49.3189 14.9031 48.0148V4.92004C14.9031 4.83112 14.9625 4.77184 15.0516 4.77184H106.43C106.519 4.77184 106.578 4.83112 106.578 4.92004C106.578 22.6737 106.578 40.3977 106.578 58.1513C106.578 56.8472 107.647 55.7802 108.953 55.7802C110.259 55.7802 111.328 56.8472 111.328 58.1513C111.328 53.8833 111.328 49.5857 111.328 45.3177H139.413C142.856 45.3177 145.795 47.5702 146.805 50.712H139.413C138.106 50.712 137.038 51.7789 137.038 53.0831V58.1513C137.038 62.2711 140.392 65.5906 144.489 65.5906H147.191V76.0531H140.956C138.908 70.155 133.297 65.9166 126.706 65.9166C120.116 65.9166 114.505 70.155 112.456 76.0531H111.298V58.1513C111.298 56.8472 110.23 55.7802 108.923 55.7802C107.617 55.7802 106.548 56.8472 106.548 58.1513V76.0531H57.2375C55.1891 70.155 49.5781 65.9166 42.9875 65.9166C36.3969 65.9166 30.7859 70.155 28.7375 76.0531H15.0813C14.9922 76.0531 14.9328 75.9938 14.9328 75.9049V70.6885H25.2344C26.5406 70.6885 27.6094 69.6215 27.6094 68.3174C27.6094 67.0133 26.5406 65.9463 25.2344 65.9463H2.375C1.06875 65.9463 0 67.0133 0 68.3174C0 69.6215 1.06875 70.6885 2.375 70.6885H10.1531V75.8753C10.1531 78.5724 12.35 80.7953 15.0813 80.7953H27.9359C27.9359 80.8546 27.9359 80.9139 27.9359 80.9435C27.9359 89.2424 34.7047 96 43.0172 96C51.3297 96 58.0984 89.2424 58.0984 80.9435C58.0984 80.8842 58.0984 80.825 58.0984 80.7953H111.744C111.744 80.8546 111.744 80.9139 111.744 80.9435C111.744 89.2424 118.513 96 126.825 96C135.137 96 141.906 89.2424 141.906 80.9435C141.906 80.8842 141.906 80.825 141.906 80.7953H149.625C150.931 80.7953 152 79.7283 152 78.4242V53.0534C152 46.7996 147.369 41.6128 141.372 40.694ZM111.388 14.8787H129.319C132.198 14.8787 134.544 17.2201 134.544 20.0951V20.2433H111.388V14.8787ZM111.388 40.5459V25.0151H132.525L136.414 40.5459H111.388ZM42.9875 91.2282C37.2875 91.2282 32.6859 86.6045 32.6859 80.9435C32.6859 75.2825 37.3172 70.6588 42.9875 70.6588C48.6578 70.6588 53.2891 75.2825 53.2891 80.9435C53.2891 86.6045 48.6875 91.2282 42.9875 91.2282ZM126.766 91.2282C121.066 91.2282 116.464 86.6045 116.464 80.9435C116.464 75.2825 121.095 70.6588 126.766 70.6588C132.466 70.6588 137.067 75.2825 137.067 80.9435C137.067 86.6045 132.466 91.2282 126.766 91.2282ZM147.25 60.8188H144.548C143.064 60.8188 141.847 59.6036 141.847 58.1216V55.4245H147.25V60.8188Z" fill="black"/>
</svg>
